<svg xmlns="http://www.w3.org/2000/svg" fill="cyan" viewBox="0 0 40.74 51.82"><title>favicon</title><g id="Layer_2" data-name="Layer 2"><g id="Layer_1-2" data-name="Layer 1"><path d="M15.18,45.63V29.74l-12.24-19a39.81,39.81,0,0,1-2.27-4A6,6,0,0,1,0,4.27a4,4,0,0,1,1.35-3A4.7,4.7,0,0,1,4.68,0,4,4,0,0,1,7.84,1.18a34.6,34.6,0,0,1,3.23,4.7l9.37,15.21L29.91,5.88c.57-.94,1.05-1.72,1.43-2.36a14.79,14.79,0,0,1,1.28-1.79A5.22,5.22,0,0,1,34.18.44,4.54,4.54,0,0,1,36.26,0a4.4,4.4,0,0,1,3.2,1.25,3.92,3.92,0,0,1,1.28,2.89,6,6,0,0,1-.65,2.66,33.4,33.4,0,0,1-2.22,3.69L25.33,29.74V45.63a6.61,6.61,0,0,1-1.44,4.65,4.8,4.8,0,0,1-3.66,1.54,4.74,4.74,0,0,1-3.65-1.52A6.69,6.69,0,0,1,15.18,45.63Z"/></g></g></svg>